@startuml UCWasteToFoundationMove
!pragma layout smetana
title Klondike  - WasteToFoundationMove - User Case Diagram

state IN_GAME
state CARD_IN_WASTE
state if <<choice>>
state CARD_IN_FOUNDATION

[*] --> IN_GAME
IN_GAME --> CARD_IN_WASTE: Player take card from Waste
CARD_IN_WASTE --> if: [> CardNumber AND SameColor \n OR CardNumer is A]
if --> CARD_IN_FOUNDATION: WasteToFondationMove
if --> [*]: TryAnotherMovement
CARD_IN_FOUNDATION--> [*]

@enduml
