@startuml ArquitecturaMVC
!pragma layout smetana
title Paquetes MVC
top to bottom direction

package Models {
    class StackModel
    class CardModel
    class PlayerModel
    class WasteModel
    class FoundationModel
    class PileModel
    class StockModel
    StackModel <|-down- WasteModel
    StackModel <|-down- FoundationModel
    StackModel <|-down- PileModel
    StackModel <|-down- StockModel
}

@enduml 